<mxfile host="app.diagrams.net" modified="2020-11-12T07:15:36.437Z" agent="5.0 (Windows NT 10.0; Win64; x64) AppleWebKit/537.36 (KHTML, like Gecko) Chrome/86.0.4240.183 Safari/537.36" etag="BoZOOWPSTlCjPGxivxPB" version="13.9.2" type="github">
  <diagram id="cNAsrm0xsXQxKb_6UeVG" name="Page-1">
    <mxGraphModel dx="1038" dy="580" grid="1" gridSize="10" guides="1" tooltips="1" connect="1" arrows="1" fold="1" page="1" pageScale="1" pageWidth="850" pageHeight="1100" math="0" shadow="0">
      <root>
        <mxCell id="0" />
        <mxCell id="1" parent="0" />
        <mxCell id="REl064r1XKCbG2z74vpF-3" style="edgeStyle=orthogonalEdgeStyle;rounded=0;orthogonalLoop=1;jettySize=auto;html=1;exitX=1;exitY=0.5;exitDx=0;exitDy=0;" edge="1" parent="1" source="REl064r1XKCbG2z74vpF-1" target="REl064r1XKCbG2z74vpF-2">
          <mxGeometry relative="1" as="geometry" />
        </mxCell>
        <mxCell id="REl064r1XKCbG2z74vpF-5" value="w" style="edgeLabel;html=1;align=center;verticalAlign=middle;resizable=0;points=[];" vertex="1" connectable="0" parent="REl064r1XKCbG2z74vpF-3">
          <mxGeometry x="-0.2104" y="1" relative="1" as="geometry">
            <mxPoint as="offset" />
          </mxGeometry>
        </mxCell>
        <mxCell id="REl064r1XKCbG2z74vpF-1" value="in1" style="ellipse;whiteSpace=wrap;html=1;aspect=fixed;" vertex="1" parent="1">
          <mxGeometry x="140" y="110" width="80" height="80" as="geometry" />
        </mxCell>
        <mxCell id="REl064r1XKCbG2z74vpF-2" value="out1" style="ellipse;whiteSpace=wrap;html=1;aspect=fixed;" vertex="1" parent="1">
          <mxGeometry x="520" y="110" width="80" height="80" as="geometry" />
        </mxCell>
      </root>
    </mxGraphModel>
  </diagram>
</mxfile>
